<svg xmlns="http://www.w3.org/2000/svg" width="1200" height="600" viewBox="0 0 1200 600">
  <defs>
    <linearGradient id="g6457" x1="0" x2="1" y1="0" y2="1">
      <stop offset="0" stop-color="#a855f7" stop-opacity="0.22"/>
      <stop offset="1" stop-color="#10b981" stop-opacity="0.22"/>
    </linearGradient>
    <linearGradient id="stroke6457" x1="0" x2="1" y1="0" y2="0">
      <stop offset="0" stop-color="#a855f7" stop-opacity="0.65"/>
      <stop offset="1" stop-color="#10b981" stop-opacity="0.65"/>
    </linearGradient>
    <pattern id="dots6457" width="18" height="18" patternUnits="userSpaceOnUse">
      <circle cx="2" cy="2" r="1.4" fill="#cbd5e1" opacity="0.55"/>
    </pattern>
    <filter id="shadow6457" x="-50%" y="-50%" width="200%" height="200%">
      <feDropShadow dx="0" dy="10" stdDeviation="14" flood-color="#0f172a" flood-opacity="0.10"/>
    </filter>
  </defs>

  <rect width="1200" height="600" fill="#ffffff"/>
  <rect width="1200" height="600" fill="url(#dots6457)" opacity="0.55"/>
  <circle cx="190" cy="120" r="140" fill="#a855f7" opacity="0.08"/>
  <circle cx="1040" cy="80" r="170" fill="#10b981" opacity="0.07"/>
  <circle cx="980" cy="520" r="220" fill="#a855f7" opacity="0.06"/>

  <g filter="url(#shadow6457)">
    <rect x="70" y="70" width="1060" height="460" rx="34" fill="url(#g6457)" stroke="#e2e8f0"/>
    <rect x="92" y="92" width="1016" height="416" rx="28" fill="#ffffff" opacity="0.82"/>
  </g>

  <!-- top badge -->
  <g>
    <rect x="120" y="120" width="150" height="40" rx="20" fill="#0f172a" opacity="0.92"/>
    <text x="195" y="146" text-anchor="middle"
      font-family="ui-sans-serif, system-ui, -apple-system, Segoe UI, Roboto, Helvetica, Arial"
      font-size="16" fill="#ffffff" font-weight="700" letter-spacing="1.2">GCP</text>
  </g>

  <!-- title -->
  <text x="120" y="240"
    font-family="ui-sans-serif, system-ui, -apple-system, Segoe UI, Roboto, Helvetica, Arial"
    font-size="52" fill="#0f172a" font-weight="800">AI Artisan Marketplace</text>

  <!-- subtitle -->
  <text x="120" y="292"
    font-family="ui-sans-serif, system-ui, -apple-system, Segoe UI, Roboto, Helvetica, Arial"
    font-size="24" fill="#334155" font-weight="600">GCP + Vertex AI • Cloud Run + Firestore</text>

  <!-- accent line -->
  <rect x="120" y="320" width="520" height="6" rx="3" fill="url(#stroke6457)"/>

  <!-- mini-cards -->
  <g opacity="0.95">
    <rect x="740" y="200" width="330" height="78" rx="18" fill="#ffffff" stroke="#e2e8f0"/>
    <rect x="760" y="224" width="210" height="10" rx="5" fill="#a855f7" opacity="0.35"/>
    <rect x="760" y="244" width="290" height="10" rx="5" fill="#94a3b8" opacity="0.35"/>

    <rect x="740" y="300" width="330" height="78" rx="18" fill="#ffffff" stroke="#e2e8f0"/>
    <rect x="760" y="324" width="260" height="10" rx="5" fill="#10b981" opacity="0.35"/>
    <rect x="760" y="344" width="210" height="10" rx="5" fill="#94a3b8" opacity="0.35"/>

    <rect x="740" y="400" width="330" height="78" rx="18" fill="#ffffff" stroke="#e2e8f0"/>
    <rect x="760" y="424" width="180" height="10" rx="5" fill="#a855f7" opacity="0.35"/>
    <rect x="760" y="444" width="280" height="10" rx="5" fill="#94a3b8" opacity="0.35"/>
  </g>

  <!-- bottom chips -->
  <g font-family="ui-sans-serif, system-ui, -apple-system, Segoe UI, Roboto, Helvetica, Arial" font-size="14" font-weight="700">
    <rect x="120" y="420" width="150" height="36" rx="18" fill="#f8fafc" stroke="#e2e8f0"/>
    <text x="195" y="444" text-anchor="middle" fill="#334155">clean UI</text>

    <rect x="280" y="420" width="170" height="36" rx="18" fill="#f8fafc" stroke="#e2e8f0"/>
    <text x="365" y="444" text-anchor="middle" fill="#334155">fast builds</text>

    <rect x="460" y="420" width="210" height="36" rx="18" fill="#f8fafc" stroke="#e2e8f0"/>
    <text x="565" y="444" text-anchor="middle" fill="#334155">evidence-first</text>
  </g>
</svg>
